<?xml version="1.0" encoding="utf-8"?>
<!-- Generator: Adobe Illustrator 28.0.0, SVG Export Plug-In . SVG Version: 6.00 Build 0)  -->
<svg version="1.1" id="Layer_1" xmlns="http://www.w3.org/2000/svg" xmlns:xlink="http://www.w3.org/1999/xlink" x="0px" y="0px"
	 viewBox="0 0 200 200" style="enable-background:new 0 0 200 200;" xml:space="preserve">
<style type="text/css">
	.st0{fill:#41414A;}
	.st1{fill:#F1564E;}
	.st2{fill:#FDDB6F;}
</style>
<g>
	<path class="st0" d="M187.88,36.52H97.41c-1.17,0-2.12,0.95-2.12,2.12v90.47c0,1.17,0.95,2.12,2.12,2.12h90.47
		c1.17,0,2.12-0.95,2.12-2.12V38.64C190,37.47,189.05,36.52,187.88,36.52z"/>
	<path class="st1" d="M147.26,51.84H56.79c-1.17,0-2.12,0.95-2.12,2.12v90.47c0,1.17,0.95,2.12,2.12,2.12h90.47
		c1.17,0,2.12-0.95,2.12-2.12V53.96C149.38,52.79,148.43,51.84,147.26,51.84z"/>
	<path class="st2" d="M102.59,68.77H12.12c-1.17,0-2.12,0.95-2.12,2.12v90.47c0,1.17,0.95,2.12,2.12,2.12h90.47
		c1.17,0,2.12-0.95,2.12-2.12V70.89C104.71,69.72,103.76,68.77,102.59,68.77z"/>
</g>
</svg>
