<?xml version="1.0" encoding="utf-8"?>
<!-- Generator: Adobe Illustrator 28.0.0, SVG Export Plug-In . SVG Version: 6.00 Build 0)  -->
<svg version="1.1" id="Layer_1" xmlns="http://www.w3.org/2000/svg" xmlns:xlink="http://www.w3.org/1999/xlink" x="0px" y="0px"
	 viewBox="0 0 200 200" style="enable-background:new 0 0 200 200;" xml:space="preserve">
<style type="text/css">
	.st0{fill:#FDDB6F;}
	.st1{fill:#FFCC2A;}
	.st2{fill:#F1564E;}
	.st3{fill:#41414A;}
	.st4{fill:#6B6B6E;}
	.st5{fill:#FAD17B;}
	.st6{fill:#FED78B;}
	.st7{fill:#5DB5D8;}
</style>
<g>
	<path class="st0" d="M105.31,190c-9.11-0.89-18.21-1.79-27.32-2.66c-6.72-0.64-13.44-1.23-20.16-1.88
		c-8.18-0.79-16.34-1.65-24.52-2.39c-1.3-0.12-1.15-0.86-1.15-1.68c0-7.12,0-14.24,0-21.35c0.01-13.53,0.02-27.06,0.03-40.59
		c4.83-0.51,9.68-0.67,14.52-0.99c5.83-0.39,11.67-0.73,17.51-1.08c5.84-0.36,11.69-1.03,17.51-0.97c4.19,0.05,7.14-1.29,9.72-4.38
		c1.69-2.02,3.7-3.78,5.58-5.64c2.64-2.6,5.29-5.18,7.93-7.77c0.54,0.46,0.34,1.09,0.34,1.65
		C105.32,130.17,105.32,160.08,105.31,190z M64.41,176.33c0-0.01,0-0.02,0-0.02c0.23,0.02,0.47,0.05,0.7,0.06
		c2.05,0.16,3.35-0.75,3.59-2.51c0.24-1.7-0.85-2.98-2.86-3.28c-1.39-0.2-2.8-0.34-4.2-0.48c-5.49-0.53-10.98-1.1-16.48-1.56
		c-2.01-0.17-3.32,0.97-3.42,2.71c-0.11,1.76,1.02,3,3.03,3.2C51.32,175.11,57.87,175.71,64.41,176.33z M54.2,163.18
		c1.71,0.06,3.11-0.96,3.38-2.55c0.25-1.43-0.77-3.11-2.28-3.3c-3.55-0.45-7.12-0.81-10.69-1.04c-1.58-0.1-2.79,1.26-2.86,2.77
		c-0.08,1.6,0.89,2.88,2.52,3.07C47.54,162.53,50.81,162.83,54.2,163.18z"/>
	<path class="st1" d="M166.34,117.67c0.01,9.76,0.02,19.53,0.02,29.29c-0.1,0.13-0.21,0.26-0.31,0.39
		c-0.94-0.02-1.88-0.05-2.82-0.07c-5.6-0.08-10.45,1.78-14.49,5.68c-0.12,0.12-0.24,0.23-0.37,0.35l0.01-0.02
		c-0.28,0.13-0.48,0.3-0.46,0.64l-0.04-0.03c-3.75,3.42-5.44,7.82-5.79,12.73c-0.53,7.37,2.39,13.32,7.95,18.06
		c-3.61,0.83-7.31,1-10.97,1.45c-9.66,1.18-19.33,2.28-28.99,3.41c-1.45,0.17-2.91,0.29-4.37,0.43
		c-0.01-30.58-0.02-61.15-0.02-91.73c0.48,0.42,0.99,0.81,1.45,1.27c4.75,4.73,9.48,9.48,14.23,14.22c0.54,0.54,1.02,1.07,1.91,1.11
		c4.38,0.2,8.77,0.39,13.15,0.72c3.79,0.28,7.59,0.52,11.38,0.73C153.98,116.66,160.16,117.21,166.34,117.67z"/>
	<path class="st1" d="M104.97,98.6c-2.65,2.59-5.3,5.17-7.93,7.77c-1.88,1.86-3.89,3.62-5.58,5.64c-2.58,3.09-5.53,4.43-9.72,4.38
		c-5.82-0.07-11.67,0.61-17.51,0.97c-5.84,0.36-11.68,0.7-17.51,1.08c-4.84,0.32-9.69,0.48-14.52,0.99
		c-4.7-0.09-9.37,0.56-14.06,0.7c-0.63,0.02-1.25,0-1.89,0c-0.05-0.7,0.44-0.92,0.75-1.23c4.73-4.75,9.49-9.48,14.2-14.24
		c0.76-0.77,1.55-1.07,2.62-1.15c6.84-0.51,13.66-1.12,20.5-1.67c4.97-0.4,9.94-0.74,14.9-1.14c6.77-0.55,13.54-1.15,20.32-1.68
		c5.26-0.41,10.52-0.74,15.79-1.1C105.21,98.16,105.09,98.38,104.97,98.6z"/>
	<path class="st2" d="M83.57,52.82c0.72-4.17,1.39-8.34,2.2-12.49c0.26-1.37,0-2.31-1.04-3.27c-2.93-2.72-5.76-5.55-8.61-8.36
		c-0.52-0.51-1.37-0.94-1-1.87c0.34-0.86,1.25-0.79,1.98-0.9c4.07-0.61,8.13-1.23,12.21-1.74c1.11-0.14,1.64-0.66,2.08-1.58
		c1.79-3.7,3.62-7.39,5.45-11.07c0.33-0.66,0.51-1.56,1.49-1.53c0.96,0.03,1.12,0.93,1.45,1.59c1.78,3.58,3.58,7.15,5.31,10.75
		c0.53,1.1,1.17,1.69,2.48,1.84c4.08,0.48,8.14,1.13,12.21,1.73c0.69,0.1,1.48,0.14,1.72,0.98c0.22,0.76-0.38,1.19-0.83,1.63
		c-3.02,2.97-6.04,5.94-9.11,8.86c-0.77,0.73-0.97,1.43-0.76,2.49c0.79,4.09,1.45,8.21,2.16,12.32c0.12,0.69,0.33,1.41-0.39,1.93
		c-0.69,0.5-1.23,0.01-1.78-0.28c-3.7-1.93-7.41-3.84-11.08-5.83c-0.98-0.53-1.75-0.58-2.76-0.02c-3.71,2.04-7.47,3.97-11.22,5.93
		c-0.5,0.26-1.01,0.67-1.63,0.26C83.6,53.86,83.46,53.38,83.57,52.82z"/>
	<path class="st3" d="M148.73,152.97c4.04-3.91,8.89-5.76,14.49-5.68c0.94,0.01,1.88,0.04,2.82,0.07c0.12,0.03,0.23,0.05,0.35,0.08
		c4.67,1.09,8.74,3.16,12.06,6.74c7.3,7.87,7.05,21.42-0.63,28.5c-0.33-0.01-0.64,0.02-0.8,0.36c0,0,0.05,0.01,0.05,0.01
		c-0.39,0.11-0.8,0.17-1.16,0.35c-4.1,2-8.32,2.9-12.92,2.12c-5.62-0.95-10.12-3.7-13.49-8.17c-2.71-3.61-4.1-7.64-4.06-12.36
		c0.03-3.59,0.76-6.77,2.26-9.9c0.18-0.37,0.41-0.73,0.18-1.16c0,0,0.04,0.03,0.04,0.03c0.44-0.01,0.46-0.32,0.46-0.64
		c0,0-0.01,0.02-0.01,0.02C148.49,153.2,148.61,153.09,148.73,152.97z M160.06,175.53c0,0.88-0.01,1.76,0,2.65
		c0.02,2.17,1.08,3.52,2.8,3.58c1.84,0.07,3.07-1.28,3.11-3.5c0.04-1.94,0.06-3.88-0.01-5.82c-0.04-1.06,0.29-1.46,1.39-1.42
		c2,0.07,4,0.04,6,0.01c1.99-0.03,3.29-1.23,3.26-2.94c-0.03-1.66-1.25-2.79-3.17-2.83c-2-0.04-4-0.07-6,0.01
		c-1.19,0.05-1.52-0.4-1.48-1.53c0.07-2,0.07-4,0-6c-0.07-1.97-1.31-3.27-2.99-3.27c-1.65,0-2.87,1.37-2.9,3.33
		c-0.03,2-0.08,4,0.02,6c0.06,1.21-0.4,1.5-1.51,1.46c-2.06-0.07-4.12-0.05-6.17,0c-1.82,0.05-2.94,1.16-2.96,2.8
		c-0.02,1.74,1.12,2.87,3.02,2.95c1.06,0.04,2.12,0.01,3.17,0.01C160.06,171.04,160.06,171.04,160.06,175.53z"/>
	<path class="st0" d="M166.34,117.67c-6.18-0.46-12.35-1.01-18.54-1.36c-3.8-0.21-7.59-0.45-11.38-0.73
		c-4.38-0.33-8.76-0.52-13.15-0.72c-0.89-0.04-1.37-0.57-1.91-1.11c-4.74-4.74-9.48-9.48-14.23-14.22
		c-0.45-0.45-0.96-0.85-1.45-1.27c0-0.12-0.01-0.23-0.01-0.35c4.43,0.39,8.87,0.76,13.3,1.18c4.14,0.39,8.28,0.84,12.41,1.26
		c5.42,0.56,10.84,1.13,16.26,1.67c5.25,0.52,10.5,1.05,15.75,1.49c1.76,0.15,3.2,0.58,4.51,1.92c3.69,3.79,7.53,7.44,11.3,11.14
		c0.45,0.44,0.87,0.92,1.63,1.71C175.7,118.49,171.04,117.53,166.34,117.67z"/>
	<path class="st2" d="M38.59,57.12c0.43-2.6,0.7-4.83,1.21-6.99c0.27-1.16-0.05-1.86-0.86-2.61c-1.56-1.43-3.05-2.94-4.55-4.43
		c-0.32-0.32-0.84-0.61-0.62-1.15c0.2-0.5,0.74-0.48,1.21-0.55c2.21-0.31,4.41-0.69,6.62-0.95c0.88-0.1,1.34-0.5,1.7-1.27
		c0.89-1.92,1.84-3.81,2.81-5.69c0.25-0.49,0.33-1.26,1.09-1.22c0.63,0.03,0.72,0.71,0.95,1.16c0.96,1.88,1.92,3.77,2.82,5.68
		c0.39,0.83,0.89,1.24,1.84,1.35c2.22,0.25,4.42,0.64,6.62,0.96c0.41,0.06,0.87,0.05,1.06,0.49c0.23,0.53-0.16,0.88-0.49,1.21
		c-1.48,1.43-2.9,2.94-4.47,4.26c-1.06,0.89-1.23,1.85-0.98,3.1c0.39,1.96,0.7,3.93,1.02,5.9c0.07,0.44,0.35,0.96-0.12,1.32
		c-0.55,0.42-0.99-0.07-1.44-0.3c-1.67-0.85-3.4-1.64-4.98-2.64c-1.33-0.84-2.43-0.77-3.73,0.01c-1.71,1.03-3.52,1.88-5.29,2.81
		C39.06,58.06,38.53,57.88,38.59,57.12z"/>
	<path class="st2" d="M141,56.86c0.41-2.4,0.75-4.73,1.23-7.02c0.18-0.88-0.01-1.44-0.63-2.02c-1.62-1.54-3.21-3.12-4.79-4.69
		c-0.32-0.32-0.84-0.6-0.63-1.15c0.19-0.51,0.73-0.51,1.2-0.57c2.04-0.28,4.07-0.62,6.11-0.84c1.23-0.14,1.99-0.64,2.49-1.82
		c0.8-1.89,1.79-3.7,2.71-5.54c0.2-0.4,0.27-0.99,0.89-0.93c0.47,0.05,0.6,0.52,0.78,0.88c0.97,1.95,1.96,3.88,2.86,5.86
		c0.41,0.89,0.95,1.33,1.97,1.44c2.04,0.22,4.07,0.6,6.1,0.92c0.56,0.09,1.31-0.06,1.54,0.6c0.27,0.76-0.51,1.11-0.94,1.55
		c-1.41,1.42-2.82,2.84-4.3,4.18c-0.69,0.63-0.92,1.28-0.75,2.18c0.38,2.02,0.74,4.04,1.04,6.08c0.09,0.6,0.46,1.37-0.18,1.81
		c-0.57,0.39-1.09-0.22-1.59-0.47c-1.78-0.91-3.57-1.81-5.3-2.8c-0.93-0.53-1.71-0.48-2.63,0.04c-1.89,1.06-3.84,2.04-5.76,3.05
		C141.52,58.06,140.94,58,141,56.86z"/>
	<path class="st1" d="M120.56,92.28c-2.12,0-3.43-1.64-2.88-3.71c1.12-4.19,2.35-8.36,3.55-12.53c1.52-5.3,3.04-10.6,4.56-15.9
		c0.34-1.19,0.88-2.21,2.2-2.5c2.42-0.53,4.23,1.3,3.55,3.71c-2.36,8.42-4.79,16.81-7.19,25.22c-0.36,1.24-0.68,2.49-1.11,3.71
		C122.78,91.55,121.92,92.35,120.56,92.28z"/>
	<path class="st1" d="M79.61,89.34c0,2.02-0.91,2.95-2.39,3.2c-1.6,0.28-2.78-0.51-3.26-2.05c-0.94-3.02-1.78-6.08-2.65-9.12
		c-1.77-6.14-3.54-12.28-5.3-18.42c-0.43-1.49-0.54-2.93,0.95-3.94c1.94-1.31,4-0.32,4.75,2.28c1.12,3.89,2.21,7.78,3.32,11.67
		c1.42,4.96,2.85,9.91,4.26,14.87C79.46,88.46,79.56,89.09,79.61,89.34z"/>
	<path class="st4" d="M147.88,153.92c0.24,0.43,0,0.79-0.18,1.16c-1.49,3.13-2.23,6.32-2.26,9.9c-0.04,4.72,1.35,8.76,4.06,12.36
		c3.36,4.48,7.87,7.22,13.49,8.17c4.6,0.78,8.82-0.12,12.92-2.12c0.36-0.17,0.77-0.23,1.16-0.35c-1.23,2.24-3.47,3.22-5.6,4.15
		c-6.95,3.01-13.68,2.39-20.08-1.66c-0.44-0.28-0.9-0.55-1.34-0.82c-5.56-4.74-8.47-10.69-7.95-18.06
		C142.44,161.74,144.13,157.33,147.88,153.92z"/>
	<path class="st1" d="M148.39,66.14c2.44,0.01,3.75,2.2,2.8,4.46c-1.73,4.1-3.56,8.17-5.36,12.24c-1.28,2.9-2.57,5.79-3.84,8.68
		c-0.9,2.05-2.47,2.83-4.17,2.06c-1.59-0.72-2.15-2.44-1.33-4.33c3.04-6.93,6.1-13.84,9.15-20.76
		C146.22,67.18,147.1,66.25,148.39,66.14z"/>
	<path class="st1" d="M48.4,66.5c1.27,0.12,2.06,0.95,2.6,2.17c2.55,5.8,5.13,11.58,7.7,17.37c0.52,1.18,1.08,2.35,1.53,3.56
		c0.67,1.82,0.09,3.31-1.47,3.99c-1.5,0.66-3.14,0.02-3.9-1.67c-3.11-6.96-6.22-13.92-9.24-20.92C44.57,68.59,45.94,66.44,48.4,66.5
		z"/>
	<path class="st1" d="M101.15,77.21c0,3.17,0.02,6.34-0.01,9.51c-0.02,2.04-1.14,3.29-2.88,3.28c-1.62-0.01-2.84-1.41-2.85-3.34
		c-0.01-6.34-0.02-12.68,0-19.02c0.01-2.04,1.11-3.23,2.9-3.25c1.69-0.02,2.81,1.26,2.82,3.32
		C101.17,70.86,101.15,74.03,101.15,77.21z"/>
	<path class="st5" d="M105.67,97.92c0,0.12,0.01,0.23,0.01,0.35c0.01,30.58,0.02,61.15,0.02,91.73c-0.13,0-0.26,0-0.39,0
		c0-29.91,0.01-59.83,0-89.74c0-0.56,0.2-1.19-0.34-1.65c0.12-0.22,0.23-0.45,0.35-0.67C105.44,97.93,105.56,97.93,105.67,97.92z"/>
	<path class="st6" d="M166.39,147.43c-0.12-0.03-0.23-0.05-0.35-0.08c0.1-0.13,0.21-0.26,0.31-0.39
		C166.37,147.12,166.38,147.27,166.39,147.43z"/>
	<path class="st7" d="M148.38,153.3c0,0.32-0.02,0.63-0.46,0.64C147.9,153.61,148.1,153.43,148.38,153.3z"/>
	<path class="st7" d="M148.73,152.97c-0.12,0.12-0.24,0.23-0.37,0.35C148.49,153.2,148.61,153.09,148.73,152.97z"/>
</g>
</svg>
