<?xml version="1.0" encoding="utf-8"?>
<!-- Generator: Adobe Illustrator 28.0.0, SVG Export Plug-In . SVG Version: 6.00 Build 0)  -->
<svg version="1.1" id="Layer_1" xmlns="http://www.w3.org/2000/svg" xmlns:xlink="http://www.w3.org/1999/xlink" x="0px" y="0px"
	 viewBox="0 0 200 200" style="enable-background:new 0 0 200 200;" xml:space="preserve">
<style type="text/css">
	.st0{fill:#41414A;}
	.st1{fill:#6B6B6E;}
	.st2{fill:#F1564E;}
	.st3{fill:#FDDB6F;}
	.st4{fill:#FFCC2A;}
	.st5{fill:#FEC452;}
	.st6{fill:#CB433E;}
	.st7{fill:#FEE27E;}
</style>
<g>
	<path class="st0" d="M189.85,28.65c-3.33,9.28-10.42,15.43-18.41,20.23c-8.29,4.98-17.18,4.35-25.65-0.4
		c-0.92-0.51-1.46-0.59-2.22,0.25c-2.13,2.33-4.35,4.56-6.54,6.83c-0.68,0.56-1.35,1.12-2.03,1.67c-0.03-2.38-0.07-4.76-0.1-7.14
		c0.04-0.09,0.05-0.19,0.03-0.29c0.46-0.52,0.9-1.07,1.4-1.56c12.25-12.26,24.52-24.52,36.77-36.79c0.45-0.45,0.84-0.96,1.27-1.44
		c0.82,0,1.64,0,2.46,0c0.07,0.27,0.27,0.31,0.51,0.35c3.94,0.75,7.06,2.78,9.49,5.97c1.53,2.01,2.19,4.38,3.01,6.7
		C189.85,24.89,189.85,26.77,189.85,28.65z M158.68,41.4c4.29,0.09,7.84-1.16,10.75-3.83c2.89-2.65,5.64-5.47,8.36-8.3
		c2.02-2.1,1.92-5.29-0.08-7.28c-1.9-1.9-5.17-2.1-7.16-0.15c-5.87,5.73-11.63,11.58-17.46,17.36c-0.83,0.82-0.28,0.99,0.4,1.24
		C155.27,41.1,157.09,41.46,158.68,41.4z"/>
	<path class="st1" d="M174.37,10c-0.42,0.48-0.81,0.99-1.27,1.44c-12.25,12.26-24.52,24.52-36.77,36.79
		c-0.49,0.49-0.93,1.04-1.4,1.57c-2.34-0.03-4.69-0.05-7.03-0.08c5.13-5.2,10.25-10.42,15.4-15.6c6.1-6.15,12.26-12.24,18.33-18.42
		c2.48-2.52,5.22-4.5,8.7-5.3c0.24-0.05,0.44-0.13,0.51-0.39C172.02,10,173.2,10,174.37,10z"/>
	<path class="st2" d="M135,57.23c0.68-0.56,1.35-1.12,2.03-1.67c7.15,9.06,14.29,18.11,21.44,27.17c0.18,0.23,0.33,0.5,0.54,0.69
		c3.66,3.2,4.08,7.05,3.45,11.76c-2.56,18.96-4.73,37.98-7.02,56.98c-1.46,12.14-2.9,24.29-4.32,36.44
		c-0.14,1.16-0.43,1.53-1.74,1.36c-13.64-1.77-27.28-3.44-40.93-5.16c-9.76-1.23-19.51-2.52-29.27-3.66
		c-1.65-0.19-1.62-0.88-1.45-2.13c0.93-7.14,1.79-14.29,2.67-21.43c0.04-0.29,0.01-0.58,0.01-0.88c0.72-0.76,1.42-1.55,2.16-2.29
		c17.02-17.03,34.05-34.07,51.1-51.08c0.95-0.95,1.32-1.9,1.32-3.23C134.96,85.82,134.99,71.52,135,57.23z"/>
	<path class="st3" d="M127.91,49.71c2.34,0.03,4.69,0.05,7.03,0.08c0.02,0.1,0.01,0.2-0.03,0.3c-0.47,0.43-0.96,0.85-1.42,1.31
		c-9.36,9.35-18.71,18.71-28.07,28.05c-0.53,0.53-0.95,1.22-1.8,1.32c-0.84-0.81-1.74-1.57-2.52-2.44c-0.71-0.8-1.21-0.8-1.97-0.01
		c-2.02,2.12-4.14,4.13-6.18,6.23c-0.7,0.73-1.38,0.92-2.34,0.54c-2.31-0.91-4.69-1.11-7.19-0.93
		c-9.47,0.68-16.32,10.53-13.35,20.29c0.76,2.48,2.24,4.47,3.69,6.51c-2.36,2.49-4.59,5.12-7.44,7.1c-1.62-1.96-1.89-3.97-0.55-6.13
		c0.58-0.93,0.39-1.38-0.29-2.04c-1.86-1.78-3.69-3.6-5.46-5.47c-0.73-0.77-1.14-0.85-1.87,0.05c-3.75,4.61-4.57,9.74-2.7,15.29
		c0.45,1.32,0.23,2.13-0.76,3.05c-2.01,1.87-3.88,3.9-5.87,5.8c-0.79,0.75-0.8,1.25,0.01,1.97c0.87,0.77,1.63,1.68,2.43,2.52
		c-0.6,1.61-2.07,2.48-3.18,3.65c-3.95,4.14-8.21,7.99-12.03,12.26c-8.42-8.4-16.82-16.82-25.28-25.18
		c-1.24-1.22-0.37-1.76,0.38-2.51c14.14-14.12,28.27-28.25,42.43-42.35C63,69.59,72.48,60.25,81.89,50.86
		c0.82-0.81,1.63-1.13,2.77-1.13C99.08,49.75,113.49,49.73,127.91,49.71z"/>
	<path class="st4" d="M36.05,149.02c3.83-4.27,8.08-8.11,12.03-12.26c1.11-1.17,2.58-2.03,3.18-3.65c0.1,0.01,0.2,0.02,0.29,0.03
		c0.84,0.89,1.73,1.75,2.5,2.7c0.83,1.01,1.44,1.16,2.43,0.07c1.89-2.08,3.99-3.97,5.92-6.02c0.77-0.82,1.44-0.93,2.43-0.5
		c2.88,1.23,5.88,1.47,8.91,0.74c5.97-1.44,9.94-5.17,11.67-11.01c1.74-5.87,0.2-11.08-3.94-15.55c-0.01-0.1-0.01-0.21-0.03-0.31
		c1.55-1.5,3.15-2.97,4.65-4.53c0.87-0.91,2.08-1.56,2.44-2.91c0.1,0.01,0.2,0.02,0.3,0.03c1.61,2.15,2.09,4.42,0.63,6.84
		c-0.37,0.61-0.33,1.05,0.17,1.55c2,1.98,3.99,3.96,5.96,5.96c0.59,0.6,1.06,0.54,1.59-0.09c3.2-3.84,4.68-8.41,3.29-13.08
		c-1.06-3.55-0.27-5.65,2.42-7.61c0.47-0.34,0.84-0.82,1.25-1.23c3.66-3.66,3.66-3.66-0.36-7.05c-0.04-0.04-0.11-0.05-0.16-0.07
		c-0.01-0.1-0.02-0.2-0.03-0.29c0.85-0.1,1.27-0.79,1.8-1.32c9.36-9.35,18.71-18.7,28.07-28.05c0.45-0.45,0.94-0.87,1.42-1.31
		c0.03,2.38,0.06,4.76,0.1,7.14c-0.01,14.3-0.04,28.6-0.01,42.89c0,1.33-0.36,2.28-1.32,3.23c-17.06,17-34.08,34.04-51.1,51.08
		c-0.74,0.74-1.44,1.52-2.16,2.29c-5.69,5.65-11.41,11.26-17.04,16.98c-1.12,1.13-1.68,1.13-2.8,0
		C52.44,165.42,44.24,157.23,36.05,149.02z"/>
	<path class="st2" d="M88.86,95.85c-0.1-0.01-0.2-0.02-0.3-0.03c-2.33-1.98-5.35-1.81-7.29,0.42c-1.86,2.12-1.77,5.15,0.21,7.02
		c0.01,0.1,0.02,0.21,0.03,0.31c-1.26,0.26-1.87,1.36-2.64,2.18c-1.61,1.73-3.68,3.06-4.79,5.25c-0.1-0.01-0.2-0.03-0.3-0.04
		c-1.45-2.05-2.94-4.03-3.69-6.51c-2.97-9.76,3.88-19.61,13.35-20.29c2.5-0.18,4.88,0.02,7.19,0.93c0.96,0.38,1.64,0.18,2.34-0.54
		c2.04-2.1,4.16-4.12,6.18-6.23c0.75-0.79,1.25-0.79,1.97,0.01c0.77,0.87,1.67,1.63,2.52,2.44c0.01,0.1,0.03,0.2,0.03,0.3
		C98.6,85.86,93.67,90.8,88.86,95.85z"/>
	<path class="st2" d="M51.56,133.15c-0.1-0.01-0.2-0.02-0.29-0.03c-0.81-0.85-1.56-1.75-2.43-2.52c-0.81-0.72-0.8-1.22-0.01-1.97
		c1.99-1.9,3.86-3.93,5.87-5.8c0.99-0.92,1.21-1.73,0.76-3.05c-1.87-5.55-1.05-10.68,2.7-15.29c0.73-0.9,1.14-0.82,1.87-0.05
		c1.77,1.87,3.61,3.68,5.46,5.47c0.68,0.66,0.87,1.1,0.29,2.04c-1.34,2.16-1.07,4.16,0.55,6.13c0.01,0.1,0.02,0.2,0.02,0.3
		C61.3,123.16,56.38,128.1,51.56,133.15z"/>
	<path class="st5" d="M66.36,118.36c-0.01-0.1-0.01-0.2-0.02-0.3c2.85-1.98,5.08-4.61,7.44-7.1c0.1,0.01,0.2,0.03,0.3,0.04
		c2,3.21,1.84,5.77-0.46,7.68C71.64,120.31,69.07,120.2,66.36,118.36z"/>
	<path class="st6" d="M66.36,118.36c2.71,1.84,5.28,1.96,7.25,0.32c2.3-1.91,2.46-4.47,0.46-7.68c1.11-2.19,3.18-3.51,4.79-5.25
		c0.77-0.83,1.38-1.92,2.64-2.18c4.13,4.47,5.68,9.68,3.94,15.55c-1.73,5.84-5.7,9.57-11.67,11.01c-3.03,0.73-6.04,0.5-8.91-0.74
		c-1-0.43-1.66-0.32-2.43,0.5c-1.92,2.05-4.03,3.94-5.92,6.02c-0.99,1.09-1.6,0.94-2.43-0.07c-0.78-0.95-1.66-1.8-2.5-2.7
		C56.38,128.1,61.3,123.16,66.36,118.36z"/>
	<path class="st6" d="M88.86,95.85c4.81-5.05,9.74-9.99,14.8-14.79c0.05,0.02,0.12,0.03,0.16,0.07c4.02,3.39,4.02,3.39,0.36,7.05
		c-0.41,0.41-0.78,0.89-1.25,1.23c-2.69,1.95-3.48,4.05-2.42,7.61c1.39,4.67-0.09,9.24-3.29,13.08c-0.53,0.64-1,0.7-1.59,0.09
		c-1.98-2-3.96-3.98-5.96-5.96c-0.5-0.49-0.54-0.94-0.17-1.55C90.95,100.27,90.47,98,88.86,95.85z"/>
	<path class="st7" d="M81.47,103.26c-1.97-1.87-2.06-4.89-0.21-7.02c1.94-2.22,4.97-2.4,7.29-0.42c-0.36,1.35-1.57,2-2.44,2.91
		C84.62,100.29,83.03,101.75,81.47,103.26z"/>
</g>
</svg>
