<?xml version="1.0" encoding="utf-8"?>
<!-- Generator: Adobe Illustrator 28.0.0, SVG Export Plug-In . SVG Version: 6.00 Build 0)  -->
<svg version="1.1" id="Layer_1" xmlns="http://www.w3.org/2000/svg" xmlns:xlink="http://www.w3.org/1999/xlink" x="0px" y="0px"
	 viewBox="0 0 200 200" style="enable-background:new 0 0 200 200;" xml:space="preserve">
<style type="text/css">
	.st0{fill:#F1564E;}
	.st1{fill:#FDDB6F;}
	.st2{fill:#DF4945;}
	.st3{fill:#494B51;}
	.st4{fill:#42424A;}
	.st5{fill:#CB433E;}
	.st6{fill:#EE474F;}
	.st7{fill:#41414A;}
	.st8{fill:#FFCC2A;}
	.st9{fill:#43434C;}
	.st10{fill:#F4DACC;}
	.st11{fill:#CE7F80;}
</style>
<g>
	<path class="st0" d="M18.4,149.18c0.01-8.52-0.62-17.08,0.26-25.56c0.99-9.51,6.31-16.24,14.83-20.48c0.48-0.24,0.95-0.5,1.42-0.75
		c4.61-1.64,9.39-1.67,14.21-1.65c12.37,0.05,24.74-0.02,37.11-0.04c3.24,0.77,6.33,1.98,9.44,3.13
		c-0.01,9.45-0.01,18.89-0.06,28.34c-0.01,1.1,0.31,1.49,1.43,1.42c1.62-0.09,3.25-0.04,4.87-0.05c0,1.48-0.01,2.95-0.01,4.43
		c-0.03,1.26-0.04,2.52-0.08,3.78c-0.07,2.4,0.86,4.33,2.8,5.72c2.09,1.51,4.51,1.42,6.92,1.22c2.76,0.12,5.52,0.33,8.26-0.14
		c3.12-0.53,4.67-2.6,4.39-5.69c-0.26-2.88-2.46-4.85-5.45-4.88c-1.44-0.01-2.88-0.04-4.32-0.06c0.03-1.45,0.06-2.9,0.1-4.35
		c5.28,0.02,10.56,0.04,15.84,0.06c-0.19,0.37-0.36,0.76-0.58,1.11c-3.59,5.43-5.39,11.38-5.19,17.91c-9,0.01-18.01,0.03-27.01,0.03
		c-4.5,0-9-0.04-13.5-0.06c-0.12-1.55-0.13-3.11-0.39-4.64c-1.91-11.12-7.81-19.43-17.82-24.67c-6.42-3.37-13.32-4.07-20.44-3.01
		c-4.85,1.04-9.39,2.74-13.4,5.76c-4.88,3.68-8.68,8.18-11.09,13.84C19.68,142.88,19.08,146.03,18.4,149.18z"/>
	<path class="st1" d="M39.97,42.99c2.67,0,5.34,0,8.01,0c-0.01,6.49-0.03,12.99-0.02,19.48c0.01,8.9,0.04,17.79,0.06,26.69
		c-2.39,0.03-4.78,0.05-7.17,0.08c-8.49-0.02-16.97-0.04-25.46-0.06C11.62,89.17,10,87.56,10,83.81c0-11.86,0-23.72,0-35.58
		c0-3.71,1.57-5.3,5.26-5.3c3.67,0,7.34,0.03,11.01,0.05c-0.01,5.65-0.03,11.3-0.01,16.95c0.01,2.05,0.8,2.82,2.85,2.84
		c2.52,0.02,5.05,0.01,7.57,0c2.4-0.01,3.29-0.85,3.3-3.2C40,54.05,39.98,48.52,39.97,42.99z"/>
	<path class="st1" d="M83.37,49.39c0.14-0.08,0.28-0.16,0.42-0.24c0.55,0.56,1.11,0.17,1.67,0.01c4.69-1.3,9.49-1.88,14.33-2.25
		c0.92-0.07,1.55,0.08,1.9,1.12c1.37,4.04,3.92,7.35,7.19,9.94c1.82,1.44,2.28,3.06,2.34,5.08c0.04,1.47,0.33,2.84,1.26,4.03
		c1.74,2.22,3.45,4.45,5.19,6.66c0.93,1.19,2.01,2.1,3.53,2.62c3.11,1.08,6.12,2.46,9.21,3.61c4.21,1.56,8.32,3.42,12.67,4.58
		c-1.1,2.02-1.13,4.05-0.1,6.11c-1.33-0.35-2.67-0.7-4-1.05c-7.02-2.07-14.04-4.15-21.07-6.19c-1.46-0.43-2.76-1.04-3.96-2.04
		c-3.61-2.99-7.3-5.88-10.96-8.8c-0.51-0.41-0.99-0.8-1.77-0.41c-5.36,2.7-10.75,5.36-16.12,8.03c-0.28-0.09-0.57-0.16-0.84-0.28
		c-6.95-3.1-13.9-6.2-20.85-9.3c2.89-8.43,8.2-14.87,15.93-19.3c1.19-0.68,2.31-1.53,3.7-1.82C83.25,49.78,83.31,49.58,83.37,49.39z
		"/>
	<path class="st2" d="M18.4,149.18c0.67-3.14,1.27-6.29,2.54-9.29c2.41-5.66,6.21-10.16,11.09-13.84c4.01-3.02,8.55-4.72,13.4-5.76
		c0.29,0.2,0.56,0.47,0.88,0.59c5.97,2.07,10.93,5.54,15,10.38c4.64,5.53,7.42,11.8,7.95,19.02c0.11,1.46,0.53,2.25,2.25,2.22
		c2.13-0.04,4.29-0.41,6.4,0.25c-4.35,0.03-8.7,0.06-13.05,0.09c-9.13,0-18.27,0-27.4,0c-4.58,0-9.15,0-13.73,0
		c-0.71-0.03-1.42-0.07-2.13-0.07C18.17,152.75,18.17,152.75,18.4,149.18z"/>
	<path class="st2" d="M124.59,152.65c-0.2-6.53,1.61-12.48,5.19-17.91c0.23-0.35,0.39-0.74,0.58-1.11c2.52-3.13,5.32-5.99,8.62-8.31
		c3.95-2.41,8.16-4.14,12.72-5.03c0.24,0.17,0.45,0.41,0.72,0.51c6.33,2.34,11.6,6.1,15.78,11.44c4.66,5.95,7.06,12.69,7.35,20.21
		c-0.11,0.1-0.23,0.19-0.34,0.29c-1.1,0-2.2,0.01-3.3,0.01c-0.25-0.35-0.5-0.25-0.75,0.01c-0.08,0.03-0.16,0.04-0.24,0.04
		c-0.13-0.03-0.27-0.07-0.4-0.1c-0.42-0.33-0.92-0.23-1.39-0.23c-7.88,0-15.76,0-23.64,0c-0.47,0-0.97-0.09-1.39,0.23
		c-0.18,0.04-0.36,0.08-0.54,0.12c-0.16-0.02-0.33-0.04-0.49-0.06c-2.78-0.45-5.56-0.47-8.34,0.01c-1.64,0.03-3.29,0.06-4.93,0.08
		C128.05,152.77,126.32,152.71,124.59,152.65z"/>
	<path class="st3" d="M101.91,137.97c0-1.48,0.01-2.95,0.01-4.43c0.36-7.06,0.21-14.14,0.26-21.2c0.01-2.12,1-4.83-0.37-6.23
		c-1.38-1.41-4.03-1.57-6.13-2.28c-3.11-1.15-6.2-2.36-9.44-3.13c-0.43-0.47-1.03-0.57-1.59-0.77c-5.09-1.74-10.2-3.43-15.26-5.27
		c-3.55-1.29-7.5-1.91-9.85-5.41c-2.11-4.5-1.06-8.71,1.16-12.83c0.59-1.1,1.05-2.27,1.56-3.41c0.22,0.63,0.74,0.84,1.32,1.09
		c3.18,1.41,6.33,2.9,9.51,4.33c5.42,2.43,10.86,4.81,16.27,7.26c6.01,2.72,12.06,5.39,17.98,8.3c2.91,1.43,4.69,3.89,4.58,7.36
		c-0.16,5.16-0.06,10.32-0.25,15.48c-0.25,7.01-0.33,14.05-0.47,21.07C108.11,137.94,105.01,137.96,101.91,137.97z"/>
	<path class="st4" d="M129.78,152.83c1.64-0.03,3.29-0.06,4.93-0.08c2.78,0,5.56,0,8.34-0.01c0.16,0.02,0.33,0.04,0.49,0.06
		c0.13,1.01,0.17,2.04,0.42,3.02c1.68,6.85,7.79,11.06,14.98,10.37c6.56-0.63,11.52-6.19,11.96-13.41c0.08,0,0.16-0.01,0.24-0.04
		c0.25,0,0.5-0.01,0.75-0.01c1.1,0,2.2-0.01,3.3-0.01c2.99,0,5.99,0,8.98,0c0.15,0.03,0.29,0.07,0.44,0.1
		c0.02,15.02-12.28,27.25-27.4,27.25C142.14,180.08,129.85,167.88,129.78,152.83z"/>
	<path class="st4" d="M64.87,152.84c4.35-0.03,8.7-0.06,13.05-0.09c0.23,0.03,0.46,0.07,0.7,0.1
		c-0.22,14.89-11.68,26.56-26.75,27.22c-14.09,0.62-26.54-10.33-28.05-24.7c-0.09-0.83-0.05-1.68-0.07-2.52c4.58,0,9.15,0,13.73,0
		c0.48,9.22,8.76,15.38,17.43,12.96C60.59,164.2,64.17,159.55,64.87,152.84z"/>
	<path class="st2" d="M104.16,45.1c-1.43-6.95-0.12-13.23,4.69-18.6c1.56-1.75,3.37-3.22,5.54-4.19c0.14-0.09,0.28-0.18,0.42-0.27
		c0.08-0.09,0.18-0.12,0.29-0.09c2.43,0.18,4.8-0.37,7.31-0.09c8.96,1.02,17.62,10.01,16.62,19.57l0.05,0.12
		c-3.81-0.39-7.62-0.86-11.44-1.13c-2.38-0.17-4.18,1.31-4.44,3.55c-0.44,3.87-0.74,7.75-1.1,11.62c-1.5,3.48-3.29,4.03-7.41,2.29
		C109.35,55.13,105.97,50.76,104.16,45.1z"/>
	<path class="st5" d="M184.61,152.83c-0.15-0.03-0.29-0.07-0.44-0.1c-2.86-0.62-5.76-0.11-8.64-0.29
		c-0.29-7.52-2.69-14.25-7.35-20.21c-4.18-5.34-9.45-9.09-15.78-11.44c-0.27-0.1-0.48-0.34-0.72-0.51c1.68-0.44,3.41-0.28,5.12-0.4
		c2.45-0.17,4.83,0.48,7.26,0.37c1.74,0.61,3.49,1.18,5.2,1.85c12.1,4.73,20.79,17.03,20.72,29.28c0,0.36-0.05,0.72-0.08,1.07
		c-0.12,0.04-0.21,0.11-0.26,0.23C187.97,152.73,186.29,152.78,184.61,152.83z"/>
	<path class="st5" d="M78.62,152.84c-0.23-0.03-0.46-0.07-0.7-0.1c-2.11-0.66-4.28-0.28-6.4-0.25c-1.73,0.03-2.14-0.75-2.25-2.22
		c-0.53-7.22-3.31-13.49-7.95-19.02c-4.07-4.85-9.03-8.31-15-10.38c-0.32-0.11-0.59-0.39-0.88-0.59c7.12-1.06,14.01-0.35,20.44,3.01
		c10.01,5.24,15.91,13.55,17.82,24.67c0.26,1.52,0.26,3.09,0.39,4.64C82.27,153.02,80.43,152.61,78.62,152.84z"/>
	<path class="st6" d="M138.98,89.6c1.33,0.35,2.67,0.7,4,1.05c1.23,1.53,2.67,2.67,4.76,2.67c3.89-0.31,5.99-2.57,5.78-6.22
		c-0.18-3.08-2.79-5.24-6.15-5.08c-0.6,0.12-1.2,0.23-1.79,0.35c-2.21-0.87-4.41-1.74-6.62-2.6c0.04-5.95,0.46-6.4,6.43-7.25
		c5.83-0.83,11.66-1.71,17.49-2.56c-0.02,9.05-0.03,18.1-0.05,27.15c-1.19-0.11-2.38-0.22-3.57-0.33c-0.4-0.12-0.79-0.29-1.19-0.35
		c-6.4-0.97-12.8-1.94-19.2-2.9C138.51,92.22,138.99,90.92,138.98,89.6z"/>
	<path class="st0" d="M164.08,120.25c-2.43,0.12-4.82-0.54-7.26-0.37c-1.71,0.12-3.43-0.04-5.12,0.4
		c-4.55,0.89-8.77,2.62-12.72,5.03c0.01-8.67,0.02-17.33,0.03-26c1.01,0.38,2.02,0.75,3.03,1.13c6.45,2.39,12.9,4.79,19.36,7.18
		C162.29,111.84,163.18,116.04,164.08,120.25z"/>
	<path class="st7" d="M59.54,89.26c2.35,3.5,6.3,4.12,9.85,5.41c5.06,1.84,10.17,3.53,15.26,5.27c0.57,0.19,1.16,0.3,1.59,0.77
		c-12.37,0.02-24.74,0.08-37.11,0.04c-4.82-0.02-9.6,0.01-14.21,1.65c-0.26-2.34-0.26-4.68,0-7.01c0.33-3.01,2.69-5.34,5.73-5.86
		c1.74,0.01,3.48,0.09,5.21,0.02c2.25-0.09,4.53,0.34,6.76-0.24c0.12-0.05,0.25-0.09,0.37-0.14C55.18,89.2,57.36,89.23,59.54,89.26z
		"/>
	<path class="st8" d="M52.99,89.17c-0.12,0.05-0.25,0.09-0.37,0.14c-1.53-0.05-3.06-0.1-4.59-0.14c-0.02-8.9-0.05-17.79-0.06-26.69
		c-0.01-6.49,0.01-12.99,0.02-19.48c0.96-0.02,1.92-0.06,2.88-0.06c3.89,0,5.39,1.52,5.39,5.48c0,8.96,0,17.91,0,26.87
		c0,2.77-0.1,5.54,0.03,8.29C56.41,86.24,55.44,88.1,52.99,89.17z"/>
	<path class="st9" d="M111.21,137.92c0.14-7.02,0.21-14.06,0.47-21.07c0.19-5.17,0.09-10.32,0.25-15.48
		c0.11-3.47-1.68-5.94-4.58-7.36c-5.92-2.91-11.97-5.57-17.98-8.3c-5.41-2.45-10.85-4.83-16.27-7.26c-3.18-1.43-6.32-2.92-9.51-4.33
		c-0.58-0.26-1.1-0.46-1.32-1.09c0.31-0.84,0.57-1.7,1.15-2.41c6.95,3.1,13.9,6.2,20.85,9.3c0.27,0.12,0.56,0.19,0.84,0.28
		c0.41,0.23,0.81,0.48,1.23,0.68c7.74,3.49,15.48,6.99,23.23,10.47c3.85,1.72,5.91,4.68,5.87,8.87c-0.05,5.53-0.33,11.06-0.49,16.59
		c-0.16,5.59-0.29,11.18-0.44,16.77c-0.03,1.45-0.06,2.9-0.1,4.35c-0.96,0.04-1.93,0.09-2.89,0.13
		C111.43,138.01,111.32,137.97,111.21,137.92z"/>
	<path class="st0" d="M39.97,42.99c0.01,5.53,0.03,11.06,0.01,16.59c-0.01,2.35-0.9,3.2-3.3,3.2c-2.52,0.01-5.05,0.02-7.57,0
		c-2.05-0.02-2.84-0.79-2.85-2.84c-0.02-5.65,0-11.3,0.01-16.95C30.84,42.99,35.41,42.99,39.97,42.99z"/>
	<path class="st1" d="M162.83,97.12c0.02-9.05,0.03-18.1,0.05-27.15c1.78-0.71,3.34,0.08,4.71,0.97c8.54,5.53,8.5,19.8,0,25.24
		C166.18,97.08,164.58,97.63,162.83,97.12z"/>
	<path class="st8" d="M138.96,79.78c2.21,0.87,4.41,1.74,6.62,2.6c-0.83,0.72-1.66,1.44-2.5,2.17c-4.36-1.16-8.46-3.02-12.67-4.58
		c-3.09-1.14-6.1-2.52-9.21-3.61c-1.52-0.53-2.59-1.43-3.53-2.62c-1.74-2.22-3.45-4.45-5.19-6.66c-0.93-1.19-1.22-2.56-1.26-4.03
		c-0.06-2.02-0.52-3.64-2.34-5.08c-3.27-2.59-5.82-5.9-7.19-9.94c-0.35-1.04-0.98-1.19-1.9-1.12c-4.84,0.37-9.64,0.95-14.33,2.25
		c-0.56,0.15-1.11,0.55-1.67-0.01c6.53-2.65,13.35-3.82,20.37-4.05c1.82,5.66,5.19,10.03,10.53,12.79c0.19,1.66,0.62,3.3,0.52,4.99
		c-0.04,0.73,0.34,1.24,0.75,1.76c2.14,2.74,4.27,5.49,6.39,8.24c0.3,0.39,0.58,0.77,1.05,0.95
		C128.59,75.79,133.65,78.11,138.96,79.78z"/>
	<path class="st10" d="M122.1,55.6c0.36-3.87,0.66-7.76,1.1-11.62c0.26-2.25,2.06-3.72,4.44-3.55c3.82,0.27,7.63,0.74,11.44,1.13
		c-0.25,7.3-7.14,13.99-14.46,14.03C123.78,55.6,122.94,55.6,122.1,55.6z"/>
	<path class="st5" d="M161.4,107.63c-6.45-2.39-12.91-4.79-19.36-7.18c-1.01-0.37-2.02-0.75-3.03-1.13
		c-0.36-1.92-0.13-3.85-0.15-5.78c6.4,0.96,12.8,1.92,19.2,2.9c0.41,0.06,0.79,0.23,1.19,0.35c0.68,3.26,1.36,6.52,2.04,9.78
		C161.36,106.91,161.37,107.27,161.4,107.63z"/>
	<path class="st5" d="M139.02,41.43c1-9.56-7.65-18.55-16.62-19.57c-2.5-0.29-4.87,0.27-7.31,0.09c8.06-4.28,19.6-1.76,25.37,7.26
		c1.41,2.2,2.33,4.59,2.83,7.13C143.86,39.18,141.97,41.38,139.02,41.43z"/>
	<path class="st3" d="M48.03,89.16c1.53,0.05,3.06,0.1,4.59,0.14c-2.24,0.58-4.51,0.15-6.76,0.24c-1.73,0.07-3.47-0.01-5.21-0.02
		c0.07-0.09,0.14-0.19,0.21-0.29C43.25,89.21,45.64,89.19,48.03,89.16z"/>
	<path class="st8" d="M83.37,49.39c-0.06,0.19-0.12,0.4-0.33,0.1C83.15,49.44,83.26,49.41,83.37,49.39z"/>
	<path class="st2" d="M189.66,152.68c0.05-0.11,0.14-0.19,0.26-0.23C189.94,152.66,189.88,152.76,189.66,152.68z"/>
	<path class="st8" d="M111.54,138.05c0.96-0.04,1.93-0.09,2.89-0.13c1.44,0.02,2.88,0.04,4.32,0.06c2.99,0.03,5.19,2,5.45,4.88
		c0.28,3.09-1.27,5.16-4.39,5.69c-2.74,0.46-5.5,0.26-8.26,0.14C111.55,145.14,111.54,141.6,111.54,138.05z"/>
	<path class="st1" d="M111.54,138.05c0,3.55,0.01,7.09,0.01,10.64c-2.41,0.2-4.83,0.29-6.92-1.22c-1.94-1.39-2.87-3.32-2.8-5.72
		c0.04-1.26,0.05-2.52,0.08-3.78c3.1-0.02,6.2-0.03,9.3-0.05C111.32,137.97,111.43,138.01,111.54,138.05z"/>
	<path class="st3" d="M143.08,84.55c0.83-0.72,1.66-1.44,2.5-2.17c0.6-0.12,1.2-0.23,1.79-0.35c0.21,0.2,0.4,0.46,0.65,0.58
		c2.87,1.42,3.93,4.08,2.91,6.99c-0.59,1.69-2.11,2.5-3.19,3.72c-2.09,0-3.53-1.14-4.76-2.67C141.95,88.6,141.98,86.57,143.08,84.55
		z"/>
	<path class="st11" d="M170.5,152.68c-4.91,0.04-9.83,0.11-14.74,0.11c-3.89,0-7.79-0.07-11.68-0.11c0.42-0.33,0.92-0.23,1.39-0.23
		c7.88,0,15.76,0,23.64,0C169.59,152.45,170.08,152.35,170.5,152.68z"/>
	<path class="st2" d="M175.54,152.44c2.88,0.18,5.78-0.34,8.64,0.29c-2.99,0-5.99,0-8.98,0
		C175.31,152.63,175.43,152.54,175.54,152.44z"/>
	<path class="st11" d="M143.05,152.74c-2.78,0-5.56,0-8.34,0.01C137.49,152.26,140.27,152.28,143.05,152.74z"/>
	<path class="st11" d="M171.9,152.74c-0.25,0-0.5,0.01-0.75,0.01C171.39,152.49,171.64,152.39,171.9,152.74z"/>
	<path class="st4" d="M147.74,93.33c1.09-1.22,2.6-2.02,3.19-3.72c1.02-2.91-0.04-5.57-2.91-6.99c-0.25-0.12-0.43-0.39-0.65-0.58
		c3.35-0.17,5.97,1.99,6.15,5.08C153.73,90.76,151.63,93.02,147.74,93.33z"/>
</g>
</svg>
